<svg xmlns="http://www.w3.org/2000/svg" width="256" height="256" viewBox="0 0 100 100"><rect width="100" height="100" rx="50" fill="#ff6c63"></rect><path d="M14.34 49.93L36.82 61.61Q36.90 61.97 36.90 62.26Q36.90 62.56 36.90 62.92L36.90 62.92Q36.90 64.02 36.17 64.75Q35.44 65.48 34.20 65.48L34.20 65.48Q33.17 65.48 31.64 64.53L31.64 64.53L9.38 52.41Q8.65 51.31 8.65 50.00L8.65 50.00Q8.65 47.96 9.89 47.23L9.89 47.23L34.27 34.74Q36.68 35.62 36.68 37.52L36.68 37.52Q36.68 38.76 35.95 39.45Q35.22 40.14 34.05 40.87L34.05 40.87L14.34 49.93ZM59.23 26.57L45.73 79.56Q45.29 79.64 44.85 79.67Q44.42 79.71 43.83 79.71L43.83 79.71Q40.98 79.71 40.98 77.08L40.98 77.08Q40.98 76.28 41.28 75.18Q41.57 74.09 41.71 73.43L41.71 73.43L55.15 20.43Q55.58 20.36 56.06 20.33Q56.53 20.29 57.04 20.29L57.04 20.29Q58.29 20.29 59.09 20.91Q59.89 21.53 59.89 22.92L59.89 22.92Q59.89 23.72 59.67 24.71Q59.45 25.69 59.23 26.57L59.23 26.57ZM85.66 49.85L63.91 38.39Q63.83 38.03 63.83 37.74Q63.83 37.44 63.83 37.08L63.83 37.08Q63.83 36.06 64.53 35.29Q65.22 34.52 66.46 34.52L66.46 34.52Q67.05 34.52 67.67 34.78Q68.29 35.03 69.02 35.40L69.02 35.40L90.62 47.52Q91.35 48.61 91.35 50.00L91.35 50.00Q91.35 51.09 91.03 51.75Q90.70 52.41 90.11 52.77L90.11 52.77L66.46 65.18Q65.22 64.82 64.64 64.05Q64.05 63.29 64.05 62.41L64.05 62.41Q64.05 61.24 64.75 60.48Q65.44 59.71 66.68 59.12L66.68 59.12L85.66 49.85Z" fill="#fff"></path></svg>